<svg xmlns="http://www.w3.org/2000/svg" viewBox="0 0 24 24" id="pie-chart">
  <g>
    <circle cx="11" cy="11" r="10" fill="#61c5fa"></circle>
    <circle cx="17" cy="17" r="7" fill="#6dedd4"></circle>
    <path fill="#fff" d="M17.5,21H14V19h3.5a.5.5,0,0,0,0-1h-1a2.5,2.5,0,0,1,0-5H20v2H16.5a.5.5,0,0,0,0,1h1a2.5,2.5,0,0,1,0,5Z"></path>
    <rect width="2" height="2" x="16" y="12" fill="#fff"></rect>
    <rect width="2" height="2" x="16" y="20" fill="#fff"></rect>
    <path fill="#3870cf" d="M11,11,3.93,18.07A10,10,0,0,1,1,11Z"></path>
    <path fill="#468ff1" d="M11,0V11H0A11,11,0,0,1,11,0Z"></path>
  </g>
</svg>
